HIERARCHY
ROOT ui
{
	 OFFSET 0 0 0
	 CHANNELS 3 XPosition YPosition Z Position
	 EndSite
	 {
	 OFFSET 0 -1 0
	 }
}
ROOT li
{
	 OFFSET 0 0 0
	 CHANNELS 3 XPosition YPosition Z Position
	 EndSite
	 {
	 OFFSET 0 -1 0
	 }
}
ROOT ul
{
	 OFFSET 0 0 0
	 CHANNELS 3 XPosition YPosition Z Position
	 EndSite
	 {
	 OFFSET 0 -1 0
	 }
}
ROOT ll
{
	 OFFSET 0 0 0
	 CHANNELS 3 XPosition YPosition Z Position
	 EndSite
	 {
	 OFFSET 0 -1 0
	 }
}
ROOT tt
{
	 OFFSET 0 0 0
	 CHANNELS 3 XPosition YPosition Z Position
	 EndSite
	 {
	 OFFSET 0 -1 0
	 }
}
ROOT tb
{
	 OFFSET 0 0 0
	 CHANNELS 3 XPosition YPosition Z Position
	 EndSite
	 {
	 OFFSET 0 -1 0
	 }
}
ROOT td
{
	 OFFSET 0 0 0
	 CHANNELS 3 XPosition YPosition Z Position
	 EndSite
	 {
	 OFFSET 0 -1 0
	 }
}
ROOT v
{
	 OFFSET 0 0 0
	 CHANNELS 3 XPosition YPosition Z Position
	 EndSite
	 {
	 OFFSET 0 -1 0
	 }
}
ROOT bn
{
	 OFFSET 0 0 0
	 CHANNELS 3 XPosition YPosition Z Position
	 EndSite
	 {
	 OFFSET 0 -1 0
	 }
}
MOTION
Frames: 16
Frame Time: 0.002
-0.002111709117889404	-6.89602017402649E-4	0		0.4261290283203125	-2.430580810546875	0		-0.9245197143554688	0.2204290771484375	0		-0.5138480834960938	-2.603173095703125	0		1.3556607666015625	-0.7614070434570313	0		3.083551513671875	0.04219405746459961	0		4.62066796875	0.12277420806884766	0		5.570060546875	0.1796836242675781	0		-0.23908633422851563	5.978880859375	0		
0.0015196479558944702	0.0021614971160888673	0		0.44827023315429687	-2.44516015625	0		-0.99103564453125	0.21685185241699217	0		-0.5334434204101562	-2.604795166015625	0		1.3730565185546875	-0.7679232788085938	0		3.091074951171875	0.0398131103515625	0		4.6250654296875	0.11438734436035156	0		5.571994140625	0.19112322998046874	0		-0.2230658416748047	5.98647998046875	0		
0.021078542709350587	0.0016678320169448853	0		0.45182913208007813	-2.440325927734375	0		-0.9062420654296875	0.22598129272460937	0		-0.5288702392578125	-2.598937744140625	0		1.371868896484375	-0.7550245971679688	0		3.132673828125	0.04069559860229492	0		4.63189453125	0.1259612579345703	0		5.57876171875	0.18502029418945312	0		-0.22226966857910158	5.98441259765625	0		
0.0037403039932250976	0.00598836612701416	0		0.42962408447265626	-2.424917724609375	0		-0.9217239990234375	0.22330105590820312	0		-0.544302978515625	-2.59363671875	0		1.4024197998046875	-0.7548143920898438	0		3.094320556640625	0.044337440490722656	0		4.62351611328125	0.12787975311279298	0		5.57136669921875	0.1900782470703125	0		-0.22338890075683593	5.98639404296875	0		
2.3762199282646178E-4	0.002013904094696045	0		0.48669613647460935	-2.4442451171875	0		-0.9261952514648437	0.2203876953125	0		-0.5149901123046875	-2.60131103515625	0		1.356894775390625	-0.7579271240234375	0		3.093906494140625	0.04416462707519531	0		4.61897509765625	0.12173101806640625	0		5.56881591796875	0.17761012268066406	0		-0.23876567077636718	5.97669384765625	0		
0.009619354248046875	-0.008234775543212891	0		0.4343238220214844	-2.438154541015625	0		-0.9265825805664063	0.22039370727539062	0		-0.5154911499023438	-2.601321533203125	0		1.3933272705078126	-0.7648247680664062	0		3.0894033203125	0.039097652435302735	0		4.61858349609375	0.12151344299316406	0		5.568529296875	0.17717373657226562	0		-0.23892086791992187	5.97667236328125	0		
-0.004595337867736816	-9.492380023002624E-4	0		0.4457027282714844	-2.4454541015625	0		-0.9269461059570312	0.22040817260742188	0		-0.5380881958007813	-2.6068369140625	0		1.3539359130859374	-0.7640396118164062	0		3.114158935546875	0.04440839385986328	0		4.6230390625	0.11320997619628906	0		5.57050830078125	0.1887723388671875	0		-0.22385009765625	5.986328125	0		
0.008344310760498047	0.01175273323059082	0		0.4115899047851562	-2.43073193359375	0		-0.9181299438476562	0.22723222351074218	0		-0.5441914672851562	-2.59169775390625	0		1.4066405029296876	-0.76126513671875	0		3.092799560546875	0.0437537841796875	0		4.6299619140625	0.12488182067871094	0		5.57025927734375	0.18842446899414061	0		-0.224961181640625	5.98734912109375	0		
0.008590059280395508	-0.008259555816650391	0		0.4708306579589844	-2.448060791015625	0		-0.9275877685546875	0.22046751403808593	0		-0.550718994140625	-2.597541015625	0		1.3405400390625	-0.7498505249023437	0		3.121459228515625	0.0420189208984375	0		4.61756787109375	0.12100331115722657	0		5.567783203125	0.17613453674316407	0		-0.22410276794433595	5.98633984375	0		
-0.0014666420221328734	0.001978593945503235	0		0.4249320678710938	-2.427042724609375	0		-0.9278612670898437	0.22051455688476562	0		-0.5279484252929687	-2.59201513671875	0		1.39500341796875	-0.7610838012695312	0		3.127024169921875	0.034815853118896484	0		4.62142333984375	0.12679725646972656	0		5.56982958984375	0.18788212585449218	0		-0.22420658874511717	5.9863662109375	0		
-0.0017131890058517457	0.0020138161182403566	0		0.43133151245117185	-2.440170654296875	0		-0.9380774536132812	0.22179550170898438	0		-0.55243505859375	-2.5994326171875	0		1.33172998046875	-0.7606908569335937	0		3.0878544921875	0.03863056182861328	0		4.62186962890625	0.11269097137451171	0		5.5674013671875	0.17569900512695313	0		-0.24046734619140625	5.978763671875	0		
-0.0019261059761047363	0.002065337896347046	0		0.4180194396972656	-2.4418408203125	0		-0.9283097534179687	0.22064791870117187	0		-0.5398681030273438	-2.606654296875	0		1.36933447265625	-0.7685113525390626	0		3.096595947265625	0.036409725189208986	0		4.62579150390625	0.11854252624511719	0		5.57772119140625	0.15077381896972655	0		-0.2243648986816406	5.98646435546875	0		
0.007114565849304199	0.011931429862976075	0		0.4478260498046875	-2.440447509765625	0		-0.9152432861328125	0.23144453430175782	0		-0.5457677001953125	-2.591445556640625	0		1.3543204345703126	-0.7601412963867188	0		3.129498291015625	0.03967974853515625	0		4.62874755859375	0.12444532012939453	0		5.57232958984375	0.19942686462402343	0		-0.2234625244140625	5.984515625	0		
-0.002249706983566284	0.0022175960540771486	0		0.4357947082519531	-2.43310693359375	0		-0.9403997802734375	0.23110067749023439	0		-0.5289644165039062	-2.591728759765625	0		1.3992838134765626	-0.7550827026367187	0		3.09143017578125	0.04354892730712891	0		4.62547265625	0.1185120849609375	0		5.56926123046875	0.18744395446777343	0		-0.22445223999023436	5.98662548828125	0		
0.007415010929107666	-0.007904200077056885	0		0.43153497314453126	-2.437926025390625	0		-0.9405067749023438	0.23121359252929688	0		-0.5630415649414062	-2.587867919921875	0		1.354083251953125	-0.7580065307617188	0		3.08407763671875	0.03275551986694336	0		4.61641015625	0.12073534393310546	0		5.5710341796875	0.15621385192871093	0		-0.23870802307128905	5.97604052734375	0		
-0.0024378681182861328	0.002424604892730713	0		0.43142385864257815	-2.437822998046875	0		-0.932894287109375	0.2171612548828125	0		-0.5312738037109375	-2.593461181640625	0		1.390852783203125	-0.7647371215820312	0		3.092953857421875	0.030622549057006836	0		4.6211552734375	0.11267166137695313	0		5.566873046875	0.17552796936035156	0		-0.23870323181152345	5.97615283203125	0		
